<?xml version="1.0" encoding="UTF-8" standalone="no"?>
<!-- Created with Inkscape (http://www.inkscape.org/) -->

<svg
   version="1.1"
   id="svg2"
   width="336.73999"
   height="335.70453"
   viewBox="0 0 336.73999 335.70453"
   sodipodi:docname="logoCircular.ai"
   xmlns:inkscape="http://www.inkscape.org/namespaces/inkscape"
   xmlns:sodipodi="http://sodipodi.sourceforge.net/DTD/sodipodi-0.dtd"
   xmlns="http://www.w3.org/2000/svg"
   xmlns:svg="http://www.w3.org/2000/svg">
  <defs
     id="defs6">
    <linearGradient
       x1="0"
       y1="0"
       x2="1"
       y2="0"
       gradientUnits="userSpaceOnUse"
       gradientTransform="matrix(772.8783,-490.48346,-490.48346,-772.8783,674.72601,733.2301)"
       spreadMethod="pad"
       id="linearGradient38">
      <stop
         style="stop-opacity:1;stop-color:#4d51bf"
         offset="0"
         id="stop24" />
      <stop
         style="stop-opacity:1;stop-color:#ffffff"
         offset="0.298883"
         id="stop26" />
      <stop
         style="stop-opacity:1;stop-color:#ffffff"
         offset="0.31391793"
         id="stop28" />
      <stop
         style="stop-opacity:1;stop-color:#ffffff"
         offset="0.550279"
         id="stop30" />
      <stop
         style="stop-opacity:1;stop-color:#ffffff"
         offset="0.55473381"
         id="stop32" />
      <stop
         style="stop-opacity:1;stop-color:#ff5d00"
         offset="0.765363"
         id="stop34" />
      <stop
         style="stop-opacity:1;stop-color:#ff5d00"
         offset="1"
         id="stop36" />
    </linearGradient>
  </defs>
  <sodipodi:namedview
     id="namedview4"
     pagecolor="#505050"
     bordercolor="#ffffff"
     borderopacity="1"
     inkscape:showpageshadow="0"
     inkscape:pageopacity="0"
     inkscape:pagecheckerboard="1"
     inkscape:deskcolor="#505050"
     showgrid="false" />
  <g
     id="g10"
     inkscape:groupmode="layer"
     inkscape:label="Page 1"
     transform="matrix(1.3333333,0,0,-1.3333333,-865.62939,1153.6146)">
    <g
       id="g12"
       transform="matrix(0.3902125,0,0,0.3902125,395.88749,527.59485)"
       inkscape:export-filename="g12.png"
       inkscape:export-xdpi="96"
       inkscape:export-ydpi="96">
      <g
         id="g14">
        <g
           id="g20">
          <g
             id="g22">
            <path
               d="M 944.319,863.438 C 911.208,859.81 879.62,851 849.462,837.051 v 0 c -31.218,-14.438 -58.286,-34.757 -82.415,-59.13 v 0 c -4.149,-4.191 -3.687,-6.463 2.234,-9.072 v 0 c -0.815,-0.716 -1.507,-1.377 -2.252,-1.973 v 0 c -18.176,-14.535 -34.202,-31.163 -48.483,-49.519 v 0 C 705.38,700.435 695.138,681.756 685.347,662.784 v 0 C 674.698,642.147 665.97,620.772 659.632,598.399 v 0 c -11.271,-39.776 -13.54,-80.08 -6.071,-120.656 v 0 c 12.681,-68.898 47.485,-125.279 99.771,-171.076 v 0 C 787.729,276.54 827.7,255.538 870.385,239.97 v 0 c 41.879,-15.273 85.245,-22.145 130.003,-19.403 v 0 c 23.055,1.413 45.722,4.987 67.804,11.469 v 0 c 43.224,12.687 82.244,33.503 116.879,62.417 v 0 c 46.123,38.502 78.369,86.409 96.518,143.608 v 0 c 11.422,35.996 16.491,72.881 14.395,110.801 v 0 c -1.726,31.191 -7.729,61.331 -17.896,90.81 v 0 c -5.954,17.264 -15.242,32.936 -22.425,49.586 v 0 c -10.852,25.152 -25.061,48.094 -43.08,68.728 v 0 c -39.44,45.164 -88.488,75.416 -145.397,93.162 v 0 c -29.683,9.257 -59.857,14.064 -90.544,14.063 v 0 c -10.71,0 -21.488,-0.586 -32.323,-1.773 m -118.392,-48.55 c 36.93,22.784 76.991,36.428 120.081,40.613 v 0 c 58.331,5.667 113.647,-5.498 166.113,-31.398 v 0 c 32.272,-15.931 61.21,-36.398 85.962,-62.63 v 0 c 0.889,-0.942 1.759,-1.9 2.279,-3.213 v 0 c -7.398,6.311 -14.62,12.839 -22.221,18.895 v 0 c -43.47,34.643 -92.726,55.734 -147.867,63.233 v 0 c -49.916,6.787 -98.48,1.023 -146.399,-13.819 v 0 c -32.344,-10.018 -63.172,-23.045 -91.616,-41.477 v 0 c -6.499,-4.212 -12.746,-8.811 -19.11,-13.231 v 0 c 15.45,17.019 33.286,31 52.778,43.027 m 184.791,13.931 c 4.07,5.731 9.669,3.134 14.531,2.522 v 0 c 59.34,-7.473 111.413,-31.381 157.068,-69.773 v 0 c 29.34,-24.673 52.422,-54.416 70.44,-88.018 v 0 c 5.961,-11.116 8.245,-23.889 11.218,-36.189 v 0 c 5.622,-23.257 8.098,-47.002 7.96,-70.806 v 0 c -0.272,-47.289 -9.368,-92.965 -28.067,-136.563 v 0 c -17.667,-41.191 -42.503,-77.277 -76.741,-106.478 v 0 c -21.058,-17.96 -44.581,-32.059 -70.032,-42.946 v 0 c -39.541,-16.916 -80.452,-29.036 -123.098,-34.998 v 0 c -11.217,-1.569 -22.542,-1.92 -33.456,-2.348 v 0 c -37.365,0.644 -72.994,8.03 -106.31,23.901 v 0 C 776.532,294.61 730.389,335.4 698.118,390.936 v 0 c -14.412,24.803 -21.578,52.168 -25.371,80.486 v 0 c -2.036,15.199 -3.439,30.475 -3.656,45.768 v 0 c -0.685,48.428 5.465,95.836 25.549,140.377 v 0 c 9.061,20.098 22.648,37.678 36.812,54.553 v 0 c 38.288,45.618 85.239,79.235 141.17,99.828 v 0 c 23.677,8.717 48.425,13.296 73.528,15.875 v 0 c 20.102,2.064 40.193,2.331 60.299,0.132 v 0 c 0.522,-0.057 1.09,-0.112 1.646,-0.112 v 0 c 1.059,0 2.072,0.201 2.623,0.976 M 1000.565,241.05 c 33.77,7.238 66.689,17.318 98.488,31.002 v 0 c 38.808,16.699 73.139,39.632 101.364,71.307 v 0 c 21.938,24.619 38.771,52.4 51.696,82.682 v 0 c 13.915,32.602 21.986,66.623 25.746,101.781 v 0 c 2.898,27.113 2.706,54.166 -1.005,81.186 v 0 c -0.086,0.627 -0.01,1.276 -0.01,1.915 v 0 c 0.449,-0.094 0.9,-0.188 1.351,-0.28 v 0 c 22.494,-102.472 4.933,-196.795 -65.399,-276.576 v 0 C 1137.329,248.462 1040.737,216.654 928.071,234.243 v 0 c 3.101,-0.108 6.197,-0.161 9.292,-0.161 v 0 c 21.241,0 42.356,2.499 63.202,6.968"
               style="fill:url(#linearGradient38);stroke:none"
               id="path40" />
          </g>
        </g>
      </g>
    </g>
    <text
       xml:space="preserve"
       transform="scale(0.9979028,-1.0021016)"
       style="font-variant:normal;font-weight:normal;font-stretch:normal;font-size:85.6665px;font-family:Gistesy;-inkscape-font-specification:Gistesy;writing-mode:lr-tb;fill:#ff5d00;fill-opacity:1;fill-rule:nonzero;stroke:none;stroke-width:0.389394"
       id="text44"
       x="683.83838"
       y="-736.56653"><tspan
         x="683.83838 737.12311 761.96643 781.15576 799.74548 824.58881 850.28882"
         y="-736.56653"
         sodipodi:role="line"
         id="tspan42"
         style="stroke-width:0.389394">Radeans</tspan></text>
    <text
       xml:space="preserve"
       transform="scale(1,-1)"
       style="font-variant:normal;font-weight:normal;font-stretch:normal;font-size:19.5106px;font-family:Belleza;-inkscape-font-specification:Belleza-Regular;writing-mode:lr-tb;fill:#4d51bf;fill-opacity:1;fill-rule:nonzero;stroke:none;stroke-width:0.390212"
       id="text50"
       x="714.28809"
       y="-670.65155"><tspan
         x="714.28809 729.42834 745.99292 759.78687 778.22443 795.84253 805.01251 823.11841 838.37567"
         y="-670.65155"
         sodipodi:role="line"
         id="tspan46"
         style="stroke-width:0.390212">SALÓN DE </tspan><tspan
         x="714.28809 731.14532 746.40259 760.19659 773.99066 789.24792 804.68085"
         y="-646.45837"
         sodipodi:role="line"
         id="tspan48"
         style="stroke-width:0.390212">BELLEZA</tspan></text>
  </g>
</svg>
