<?xml version="1.0" encoding="UTF-8" standalone="no"?>
<!-- Created with Inkscape (http://www.inkscape.org/) -->

<svg
   width="80.902458mm"
   height="47.987968mm"
   viewBox="0 0 80.902458 47.987968"
   version="1.1"
   id="svg5"
   xml:space="preserve"
   inkscape:export-filename="bitmap.svg"
   inkscape:export-xdpi="94.342857"
   inkscape:export-ydpi="94.342857"
   xmlns:inkscape="http://www.inkscape.org/namespaces/inkscape"
   xmlns:sodipodi="http://sodipodi.sourceforge.net/DTD/sodipodi-0.dtd"
   xmlns="http://www.w3.org/2000/svg"
   xmlns:svg="http://www.w3.org/2000/svg"><sodipodi:namedview
     id="namedview7"
     pagecolor="#505050"
     bordercolor="#ffffff"
     borderopacity="1"
     inkscape:showpageshadow="0"
     inkscape:pageopacity="0"
     inkscape:pagecheckerboard="1"
     inkscape:deskcolor="#505050"
     inkscape:document-units="mm"
     showgrid="false" /><defs
     id="defs2" /><g
     inkscape:label="Capa 1"
     inkscape:groupmode="layer"
     id="layer1"
     transform="translate(-66.379068,-119.30986)"><path
       style="fill:#ff5d00;fill-opacity:1;stroke-width:0.264583"
       d="m 75.136543,166.99897 c -0.640554,-0.77182 -0.836761,-3.01014 -0.842951,-9.61634 l -0.0065,-6.90343 -1.124479,-0.34851 c -0.618463,-0.19168 -2.017448,-0.35935 -3.108854,-0.37261 -1.527283,-0.0186 -1.984375,-0.11072 -1.984375,-0.40012 0,-0.20682 1.152877,-1.04025 2.561949,-1.85209 4.167652,-2.40118 3.883977,-2.00583 4.191523,-5.84168 0.349715,-4.3618 1.452734,-11.76424 2.2353,-15.0013 0.344569,-1.42528 0.58661,-2.63131 0.537874,-2.68004 -0.426569,-0.42657 -4.168512,3.45483 -5.877291,6.09633 -2.679432,4.14198 -4.430129,8.89131 -4.257859,11.55082 0.06735,1.03977 0.169276,1.23759 0.67465,1.30936 0.81246,0.11539 0.752744,0.7919 -0.08854,1.00305 -0.966398,0.24255 -1.481182,-0.38568 -1.63596,-1.99648 -0.46359,-4.82467 4.188167,-13.98387 9.279208,-18.27054 2.227495,-1.87556 6.046816,-3.86818 8.133906,-4.24365 2.29396,-0.41268 5.01412,0.25607 6.10823,1.50171 2.03505,2.31688 1.97429,5.62657 -0.18384,10.01511 -1.92122,3.9068 -5.65056,8.37109 -10.056653,12.03854 -3.712605,3.09023 -3.552706,2.86068 -3.552706,5.10021 v 1.96591 l 1.785937,1.18885 c 0.982266,0.65386 4.048132,3.0277 6.813022,5.27518 2.7649,2.24748 6.00935,4.83094 7.2099,5.74102 1.20054,0.91008 2.18281,1.75567 2.18281,1.87908 0,0.12342 -0.1763,0.29204 -0.39178,0.37473 -0.46135,0.17704 -3.56575,-2.08998 -10.32384,-7.5391 -5.726753,-4.61753 -6.925762,-5.44616 -7.315906,-5.05602 -0.194157,0.19416 -0.236911,2.43043 -0.136118,7.11984 0.08082,3.76022 0.183245,7.1307 0.227608,7.48996 0.09188,0.7441 -0.579202,1.04467 -1.054298,0.47221 z m -0.727631,-19.73909 c -0.131807,-0.14067 -2.238454,1.08835 -2.238454,1.30591 0,0.10427 0.446484,0.2963 0.992187,0.42673 0.987148,0.23595 0.993054,0.23239 1.162728,-0.70132 0.0938,-0.51616 0.13139,-0.98025 0.08354,-1.03132 z m 4.803799,-5.902 c 6.778093,-6.04082 11.320323,-13.55349 10.580113,-17.49913 -0.24578,-1.31013 -1.54329,-2.74968 -2.82429,-3.13348 -1.31646,-0.39442 -3.92261,0.008 -5.891548,0.90916 l -1.407578,0.64441 -0.964523,4.86403 c -0.810318,4.08638 -2.301094,14.41523 -2.301094,15.94313 0,0.62917 0.529317,0.30352 2.80892,-1.72812 z m 56.193159,14.32922 c -1.17746,-1.17746 -0.28637,-3.75852 2.35856,-6.83161 1.87987,-2.18419 1.87872,-2.20251 -0.25027,-3.9977 -1.28785,-1.08593 -1.39663,-1.12895 -1.66018,-0.65648 -0.54275,0.97296 -2.43868,2.70556 -3.12818,2.85869 -1.53654,0.34124 -2.87618,-1.95813 -2.87618,-4.93672 0,-0.86225 -0.10231,-1.26284 -0.30526,-1.19519 -0.1679,0.056 -0.85251,1.06316 -1.52136,2.23822 -0.66885,1.17505 -1.38426,2.33555 -1.58981,2.57889 -0.59792,0.70786 -1.4141,0.41257 -1.67685,-0.60666 l -0.22978,-0.89127 -0.57961,0.52748 c -1.53366,1.39569 -3.25582,1.52999 -4.43961,0.34619 -0.42712,-0.42712 -0.84956,-1.14149 -0.93876,-1.5875 -0.0892,-0.446 -0.2366,-0.81082 -0.32755,-0.8107 -0.0909,1.2e-4 -0.64162,0.80379 -1.2237,1.78593 -0.84741,1.42983 -1.20332,1.80241 -1.78581,1.86943 -0.59061,0.068 -0.7809,-0.0565 -1.01144,-0.66145 -0.15618,-0.40985 -0.21688,-1.08192 -0.13489,-1.4935 l 0.14907,-0.74832 -1.29188,0.94833 c -2.33449,1.71368 -3.85791,2.09698 -5.32306,1.33933 -1.00579,-0.52012 -1.32031,-1.14932 -1.35551,-2.71172 -0.0554,-2.45864 1.86435,-4.92859 3.71041,-4.77381 1.09899,0.0922 1.32299,0.59844 0.8113,1.83377 -0.34081,0.8228 -2.29576,2.34721 -3.01013,2.34721 -0.27772,0 -0.41535,0.24351 -0.41535,0.73487 0,3.55828 5.15015,1.89828 8.05837,-2.59737 1.19786,-1.8517 2.22021,-2.63542 3.43786,-2.63542 0.74234,0 1.73293,0.83184 1.73293,1.45521 0,0.49381 -0.24951,0.4915 -0.91046,-0.008 -0.77354,-0.58507 -1.28226,-0.47601 -2.19908,0.47144 -0.8775,0.90681 -1.7379,2.64084 -2.0513,4.13414 -0.27701,1.31995 0.17214,0.8741 1.58226,-1.57065 1.11066,-1.92556 1.78881,-2.65552 2.1404,-2.30393 0.0696,0.0696 0.22131,0.9141 0.3372,1.87675 0.23685,1.9674 0.8048,2.82517 1.8696,2.82364 1.62488,-0.002 3.26181,-1.76173 4.11757,-4.42561 0.53989,-1.68062 1.30102,-2.70764 1.7097,-2.30697 0.20109,0.19716 0.0928,0.92746 -0.37255,2.51354 -0.36079,1.22961 -0.65848,2.58675 -0.66154,3.01587 -0.005,0.71171 0.0904,0.63042 1.08761,-0.92605 1.36876,-2.13641 2.31191,-3.16146 2.90888,-3.16146 0.48302,0 0.54202,0.25395 0.89005,3.8312 0.17041,1.75158 0.69388,2.78338 1.41211,2.78338 0.78767,0 3.2208,-2.90186 3.2208,-3.84127 0,-1.32473 2.13082,-3.55672 3.05641,-3.20154 0.48011,0.18424 0.50764,1.22198 0.0324,1.22198 -0.51446,0 -1.50133,1.143 -1.50133,1.73885 0,0.28616 0.75705,1.24302 1.70737,2.15801 l 1.70736,1.64389 2.9461,-2.10892 c 2.78608,-1.99437 3.87445,-2.52763 3.62922,-1.77818 -0.0595,0.1819 -1.15185,1.05926 -2.42741,1.94969 -3.4979,2.44178 -3.45696,2.38385 -3.48826,4.93693 -0.0175,1.42622 -0.18247,2.52735 -0.47908,3.19749 -1.52386,3.44279 -3.98351,5.07194 -5.44738,3.60807 z m 2.12585,-1.06487 c 0.41378,-0.29463 1.06726,-1.20143 1.45219,-2.0151 0.7474,-1.57987 1.20008,-4.32836 0.7129,-4.32836 -0.44451,0 -2.38102,2.38481 -3.10376,3.82226 -0.85124,1.69304 -0.87777,3.05691 -0.0594,3.05691 0.13519,0 0.58434,-0.24107 0.99812,-0.53571 z m -28.59851,-13.64804 c 0.86786,-0.73025 1.47283,-1.64387 1.24163,-1.87507 -0.24023,-0.24023 -1.60403,0.89255 -2.10216,1.74607 -0.58375,1.00023 -0.23671,1.05226 0.86053,0.129 z m -5.30732,12.28209 c -0.21128,-0.74433 -0.32257,-3.14604 -0.32011,-6.9078 0.002,-3.1717 -0.0765,-5.67202 -0.17474,-5.55625 -0.0982,0.11578 -0.62814,1.30287 -1.17768,2.638 -1.15815,2.8138 -2.196396,4.00346 -3.168406,3.63047 -0.3426,-0.13147 -0.41998,-0.61077 -0.41664,-2.58055 0.004,-2.29699 0.0549,-2.51257 1.01069,-4.27117 1.045686,-1.92402 2.285486,-3.04271 3.372126,-3.04271 0.71225,0 0.70514,0.0192 1.52696,-4.12827 0.69133,-3.48897 1.15524,-4.73527 1.76259,-4.73527 0.66206,0 0.59277,1.22943 -0.24758,4.39317 -1.15697,4.35572 -1.40492,7.14563 -1.26765,14.26362 0.0659,3.41772 0.16511,6.44761 0.22044,6.73307 0.0638,0.32908 -0.0635,0.55302 -0.34775,0.61189 -0.33203,0.0688 -0.5324,-0.2032 -0.77225,-1.0482 z m -3.25294,-8.72977 c 0.64393,-1.27073 2.48917,-5.83692 2.48917,-6.15964 0,-0.39628 -0.85498,-0.0563 -1.47215,0.58534 -1.04163,1.083 -1.974136,3.36437 -2.151496,5.26362 -0.19631,2.10229 0.17507,2.20399 1.134476,0.31068 z m -12.868906,1.34813 c -0.70992,-1.32651 0.63534,-5.30416 2.34923,-6.94617 1.05964,-1.0152 2.60375,-1.21901 3.4177,-0.45112 0.57704,0.54438 0.80775,1.33475 0.38961,1.33475 -0.11315,0 -0.4768,-0.18987 -0.80813,-0.42195 -0.94014,-0.65849 -1.78243,-0.27254 -2.80888,1.28708 -0.86392,1.31268 -1.70167,3.75285 -1.39403,4.06049 0.0786,0.0786 0.77539,-0.94162 1.5485,-2.26707 1.64193,-2.815 2.12327,-2.98827 2.38391,-0.85814 0.23663,1.93389 0.70276,2.93886 1.45012,3.12643 1.01204,0.25401 1.80799,-0.0837 2.99501,-1.27072 l 1.11379,-1.11378 -0.0868,0.90048 c -0.0676,0.7014 -0.33993,1.09307 -1.23182,1.77154 -1.60329,1.21965 -2.934,1.21056 -4.17308,-0.0285 -0.57606,-0.57606 -0.89958,-1.15492 -0.89958,-1.60955 0,-1.03855 -0.38223,-0.74531 -1.54619,1.18621 -0.78513,1.30288 -1.20007,1.73967 -1.71167,1.8018 -0.4778,0.058 -0.76667,-0.0887 -0.98772,-0.50176 z"
       id="path179"
       inkscape:highlight-color="#3beed6"
       inkscape:export-filename="radeans.svg"
       inkscape:export-xdpi="94.342857"
       inkscape:export-ydpi="94.342857" /></g></svg>
